<svg class="svg-overlay" width="137" height="48" viewBox="0 0 137 48" fill="none" xmlns="http://www.w3.org/2000/svg">
                <g id="Botom live">
                    <g id="Group 4">
                        <path id="ROJO" d="M41.5151 0H113.129C126.312 0 137 10.6875 137 23.8712C137 37.055 126.312 47.7424 113.129 47.7424H41.5151V0Z" fill="#fd0131"></path>
                    </g>
                    <g id="Group 3">
                        <path id="blanco" d="M41.5152 0H23.8712C10.6875 0 0 10.6875 0 23.8712C0 37.055 10.6875 47.7424 23.8712 47.7424H41.5152V0Z" fill="white"></path>
                    </g>
                    <g id="Group 2">
                        <path id="LIVE" d="M69.7164 32.7418V35.2879H57.9105V32.7418H69.7164ZM58.5268 11.6761V35.2879H55.397V11.6761H58.5268ZM76.6573 11.6761V35.2879H73.5275V11.6761H76.6573ZM89.9714 31.7039L96.9283 11.6761H100.318L91.5768 35.2879H89.1604L89.9714 31.7039ZM83.4683 11.6761L90.3604 31.7039L91.22 35.2879H88.8036L80.079 11.6761H83.4683ZM118.497 32.7418V35.2879H105.994V32.7418H118.497ZM106.626 11.6761V35.2879H103.496V11.6761H106.626ZM116.843 21.8278V24.374H105.994V21.8278H116.843ZM118.335 11.6761V14.2384H105.994V11.6761H118.335Z" fill="white"></path>
                    </g>
                    <g id="bola roja">
                        <path id="BOLAROJA" d="M23.8712 33.2121C29.03 33.2121 33.2121 29.4947 33.2121 24.9091C33.2121 20.3235 29.03 16.6061 23.8712 16.6061C18.7123 16.6061 14.5303 20.3235 14.5303 24.9091C14.5303 29.4947 18.7123 33.2121 23.8712 33.2121Z" fill="#FF0000"></path>
                    </g>
                </g>

                <style>
    

    @keyframes parpadeo {
      0% {
        opacity: 0;
      }

      50% {
        opacity: 1;
      }

      100% {
        opacity: 0;
      }
    }

    #BOLAROJA {
      animation: parpadeo 1s infinite;
    }
  </style>

  
            </svg>